<?xml version="1.0" encoding="utf-8"?>
<!-- Generator: Adobe Illustrator 20.0.0, SVG Export Plug-In . SVG Version: 6.00 Build 0)  -->
<svg version="1.1" id="Layer_1" xmlns="http://www.w3.org/2000/svg" xmlns:xlink="http://www.w3.org/1999/xlink" x="0px" y="0px"
	 viewBox="0 0 800 800" style="enable-background:new 0 0 800 800;" xml:space="preserve">
<style type="text/css">
	.st0{fill:url(#SVGID_1_);}
	.st1{fill:url(#SVGID_2_);}
</style>
<g>
	<linearGradient id="SVGID_1_" gradientUnits="userSpaceOnUse" x1="289.6535" y1="-14.0882" x2="525.8541" y2="809.6414">
		<stop  offset="0" style="stop-color:#6248B1"/>
		<stop  offset="0.5" style="stop-color:#8055BB"/>
		<stop  offset="1" style="stop-color:#7B4BC4"/>
	</linearGradient>
	<path class="st0" d="M730.5,739.9V603.6V60.1c0-8.1-6.6-14.7-14.7-14.7H84.2c-8.1,0-14.7,6.6-14.7,14.7v611.6
		c0,45.7,37.2,82.9,82.9,82.9h563.4C723.9,754.6,730.5,748,730.5,739.9z M701,657H205.8c-8.1,0-14.7,6.6-14.7,14.7
		c0,8.1,6.6,14.7,14.7,14.7H701v38.7H152.4c-29.4,0-53.4-24-53.4-53.4c0-29.4,24-53.4,53.4-53.4H701V657z M701,588.9H152.4
		c-20.3,0-39,7.4-53.4,19.6V74.9H701V588.9z"/>
	<linearGradient id="SVGID_2_" gradientUnits="userSpaceOnUse" x1="358.4985" y1="88.7982" x2="441.4957" y2="378.2438">
		<stop  offset="0" style="stop-color:#6248B1"/>
		<stop  offset="0.5" style="stop-color:#8055BB"/>
		<stop  offset="1" style="stop-color:#7B4BC4"/>
	</linearGradient>
	<path class="st1" d="M183.4,327.4h433.3c8.1,0,14.7-6.6,14.7-14.7V154.3c0-8.1-6.6-14.7-14.7-14.7H183.4c-8.1,0-14.7,6.6-14.7,14.7
		v158.3C168.6,320.8,175.2,327.4,183.4,327.4z M198.1,169.1h403.8V298H198.1V169.1z"/>
</g>
</svg>
