<?xml version="1.0" encoding="utf-8"?>
<!-- Generator: Adobe Illustrator 20.0.0, SVG Export Plug-In . SVG Version: 6.00 Build 0)  -->
<svg version="1.1" id="Layer_1" xmlns="http://www.w3.org/2000/svg" xmlns:xlink="http://www.w3.org/1999/xlink" x="0px" y="0px"
	 viewBox="0 0 800 800" style="enable-background:new 0 0 800 800;" xml:space="preserve">
<style type="text/css">
	.st0{fill:url(#SVGID_1_);}
	.st1{fill:url(#SVGID_2_);}
	.st2{fill:url(#SVGID_3_);}
	.st3{fill:url(#SVGID_4_);}
	.st4{fill:url(#SVGID_5_);}
	.st5{fill:url(#SVGID_6_);}
	.st6{fill:url(#SVGID_7_);}
	.st7{fill:url(#SVGID_8_);}
	.st8{fill:url(#SVGID_9_);}
	.st9{fill:url(#SVGID_10_);}
	.st10{fill:url(#SVGID_11_);}
	.st11{fill:url(#SVGID_12_);}
	.st12{fill:url(#SVGID_13_);}
</style>
<g>
	<linearGradient id="SVGID_1_" gradientUnits="userSpaceOnUse" x1="336.4795" y1="178.4763" x2="463.5204" y2="621.5207">
		<stop  offset="0" style="stop-color:#6248B1"/>
		<stop  offset="0.5" style="stop-color:#8055BB"/>
		<stop  offset="1" style="stop-color:#7B4BC4"/>
	</linearGradient>
	<path class="st0" d="M400,169.6c-127.1,0-230.4,103.4-230.4,230.4c0,127,103.4,230.4,230.4,230.4c127,0,230.4-103.4,230.4-230.4
		C630.4,272.9,527,169.6,400,169.6z M400,600.2c-110.4,0-200.2-89.8-200.2-200.2c0-110.4,89.8-200.2,200.2-200.2
		c110.4,0,200.2,89.8,200.2,200.2C600.2,510.4,510.4,600.2,400,600.2z"/>
	<linearGradient id="SVGID_2_" gradientUnits="userSpaceOnUse" x1="389.5616" y1="32.9623" x2="417.9926" y2="132.113">
		<stop  offset="0" style="stop-color:#6248B1"/>
		<stop  offset="0.5" style="stop-color:#8055BB"/>
		<stop  offset="1" style="stop-color:#7B4BC4"/>
	</linearGradient>
	<path class="st1" d="M388.7,44.6v75.9c0,8.3,6.8,15.1,15.1,15.1c8.3,0,15.1-6.8,15.1-15.1V44.6c0-8.3-6.8-15.1-15.1-15.1
		C395.4,29.5,388.7,36.3,388.7,44.6z"/>
	<linearGradient id="SVGID_3_" gradientUnits="userSpaceOnUse" x1="230.2303" y1="73.2748" x2="258.8505" y2="173.0852">
		<stop  offset="0" style="stop-color:#6248B1"/>
		<stop  offset="0.5" style="stop-color:#8055BB"/>
		<stop  offset="1" style="stop-color:#7B4BC4"/>
	</linearGradient>
	<path class="st2" d="M218,77.2c-7.2,4.2-9.7,13.4-5.5,20.6l37.9,65.7c2.8,4.8,7.9,7.6,13.1,7.6c2.6,0,5.2-0.6,7.5-2
		c7.2-4.2,9.7-13.4,5.5-20.6l-37.9-65.7C234.5,75.6,225.3,73.1,218,77.2z"/>
	<linearGradient id="SVGID_4_" gradientUnits="userSpaceOnUse" x1="115.2725" y1="197.2447" x2="138.6435" y2="278.7489">
		<stop  offset="0" style="stop-color:#6248B1"/>
		<stop  offset="0.5" style="stop-color:#8055BB"/>
		<stop  offset="1" style="stop-color:#7B4BC4"/>
	</linearGradient>
	<path class="st3" d="M167.4,243.9l-65.7-37.9c-7.2-4.2-16.5-1.7-20.6,5.5c-4.2,7.2-1.7,16.5,5.5,20.6l65.7,37.9c2.4,1.4,5,2,7.5,2
		c5.2,0,10.3-2.7,13.1-7.6C177.1,257.3,174.6,248.1,167.4,243.9z"/>
	<linearGradient id="SVGID_5_" gradientUnits="userSpaceOnUse" x1="75.4911" y1="371.6429" x2="89.587" y2="420.8011">
		<stop  offset="0" style="stop-color:#6248B1"/>
		<stop  offset="0.5" style="stop-color:#8055BB"/>
		<stop  offset="1" style="stop-color:#7B4BC4"/>
	</linearGradient>
	<path class="st4" d="M135.6,396.2c0-8.3-6.8-15.1-15.1-15.1H44.6c-8.3,0-15.1,6.8-15.1,15.1c0,8.3,6.8,15.1,15.1,15.1h75.9
		C128.8,411.3,135.6,404.6,135.6,396.2z"/>
	<linearGradient id="SVGID_6_" gradientUnits="userSpaceOnUse" x1="116.4839" y1="532.1079" x2="129.876" y2="578.8117">
		<stop  offset="0" style="stop-color:#6248B1"/>
		<stop  offset="0.5" style="stop-color:#8055BB"/>
		<stop  offset="1" style="stop-color:#7B4BC4"/>
	</linearGradient>
	<path class="st5" d="M148.5,523.4l-65.7,37.9c-7.2,4.2-9.7,13.4-5.5,20.6c2.8,4.8,7.9,7.6,13.1,7.6c2.6,0,5.2-0.6,7.5-2l65.7-37.9
		c7.2-4.2,9.7-13.4,5.5-20.6C164.9,521.7,155.7,519.2,148.5,523.4z"/>
	<linearGradient id="SVGID_7_" gradientUnits="userSpaceOnUse" x1="226.5702" y1="633.1953" x2="249.4217" y2="712.8881">
		<stop  offset="0" style="stop-color:#6248B1"/>
		<stop  offset="0.5" style="stop-color:#8055BB"/>
		<stop  offset="1" style="stop-color:#7B4BC4"/>
	</linearGradient>
	<path class="st6" d="M243.9,632.6l-37.9,65.7c-4.2,7.2-1.7,16.5,5.5,20.6c2.4,1.4,5,2,7.5,2c5.2,0,10.3-2.7,13.1-7.6l37.9-65.7
		c4.2-7.2,1.7-16.5-5.5-20.6C257.3,622.9,248,625.4,243.9,632.6z"/>
	<linearGradient id="SVGID_8_" gradientUnits="userSpaceOnUse" x1="382.0065" y1="667.8868" x2="410.437" y2="767.0358">
		<stop  offset="0" style="stop-color:#6248B1"/>
		<stop  offset="0.5" style="stop-color:#8055BB"/>
		<stop  offset="1" style="stop-color:#7B4BC4"/>
	</linearGradient>
	<path class="st7" d="M381.1,679.5l0,75.9c0,8.4,6.8,15.1,15.1,15.1c8.3,0,15.1-6.8,15.1-15.1v-75.9c0-8.3-6.8-15.1-15.1-15.1
		C387.9,664.4,381.1,671.2,381.1,679.5z"/>
	<linearGradient id="SVGID_9_" gradientUnits="userSpaceOnUse" x1="541.1447" y1="626.9117" x2="569.7645" y2="726.721">
		<stop  offset="0" style="stop-color:#6248B1"/>
		<stop  offset="0.5" style="stop-color:#8055BB"/>
		<stop  offset="1" style="stop-color:#7B4BC4"/>
	</linearGradient>
	<path class="st8" d="M528.9,630.9c-7.2,4.2-9.7,13.4-5.5,20.6l37.9,65.7c2.8,4.9,7.9,7.6,13.1,7.6c2.6,0,5.1-0.6,7.5-2
		c7.2-4.2,9.7-13.4,5.5-20.6l-37.9-65.7C545.4,629.2,536.2,626.7,528.9,630.9z"/>
	<linearGradient id="SVGID_10_" gradientUnits="userSpaceOnUse" x1="661.3568" y1="521.2514" x2="684.726" y2="602.7493">
		<stop  offset="0" style="stop-color:#6248B1"/>
		<stop  offset="0.5" style="stop-color:#8055BB"/>
		<stop  offset="1" style="stop-color:#7B4BC4"/>
	</linearGradient>
	<path class="st9" d="M632.6,556.1l65.7,37.9c2.4,1.4,5,2,7.5,2c5.2,0,10.3-2.7,13.1-7.6c4.2-7.2,1.7-16.5-5.5-20.6L647.7,530
		c-7.2-4.2-16.5-1.7-20.6,5.5C622.9,542.7,625.4,552,632.6,556.1z"/>
	<linearGradient id="SVGID_11_" gradientUnits="userSpaceOnUse" x1="710.4136" y1="379.199" x2="724.5098" y2="428.3581">
		<stop  offset="0" style="stop-color:#6248B1"/>
		<stop  offset="0.5" style="stop-color:#8055BB"/>
		<stop  offset="1" style="stop-color:#7B4BC4"/>
	</linearGradient>
	<path class="st10" d="M770.5,403.8c0-8.3-6.8-15.1-15.1-15.1l-75.9,0c-8.3,0-15.1,6.8-15.1,15.1c0,8.3,6.8,15.1,15.1,15.1h75.9
		C763.7,418.9,770.5,412.1,770.5,403.8z"/>
	<linearGradient id="SVGID_12_" gradientUnits="userSpaceOnUse" x1="670.1232" y1="221.1919" x2="683.5125" y2="267.886">
		<stop  offset="0" style="stop-color:#6248B1"/>
		<stop  offset="0.5" style="stop-color:#8055BB"/>
		<stop  offset="1" style="stop-color:#7B4BC4"/>
	</linearGradient>
	<path class="st11" d="M644,278.6c2.6,0,5.2-0.6,7.5-2l65.7-37.9c7.2-4.2,9.7-13.4,5.5-20.6c-4.2-7.2-13.4-9.7-20.6-5.5l-65.7,37.9
		c-7.2,4.2-9.7,13.4-5.5,20.6C633.7,275.9,638.8,278.6,644,278.6z"/>
	<linearGradient id="SVGID_13_" gradientUnits="userSpaceOnUse" x1="550.5764" y1="87.1013" x2="573.4299" y2="166.8011">
		<stop  offset="0" style="stop-color:#6248B1"/>
		<stop  offset="0.5" style="stop-color:#8055BB"/>
		<stop  offset="1" style="stop-color:#7B4BC4"/>
	</linearGradient>
	<path class="st12" d="M535.5,172.9c2.4,1.4,5,2,7.5,2c5.2,0,10.3-2.7,13.1-7.6l37.9-65.7c4.2-7.2,1.7-16.5-5.5-20.6
		c-7.2-4.2-16.5-1.7-20.6,5.5L530,152.2C525.8,159.5,528.3,168.7,535.5,172.9z"/>
</g>
</svg>
