<?xml version="1.0" encoding="utf-8"?>
<!-- Generator: Adobe Illustrator 20.0.0, SVG Export Plug-In . SVG Version: 6.00 Build 0)  -->
<svg version="1.1" id="Layer_1" xmlns="http://www.w3.org/2000/svg" xmlns:xlink="http://www.w3.org/1999/xlink" x="0px" y="0px"
	 viewBox="0 0 800 800" style="enable-background:new 0 0 800 800;" xml:space="preserve">
<style type="text/css">
	.st0{fill:url(#SVGID_1_);}
	.st1{fill:url(#SVGID_2_);}
</style>
<g>
	<g>
		<linearGradient id="SVGID_1_" gradientUnits="userSpaceOnUse" x1="327.7052" y1="35.8283" x2="518.7737" y2="702.1634">
			<stop  offset="0" style="stop-color:#6248B1"/>
			<stop  offset="0.5" style="stop-color:#8055BB"/>
			<stop  offset="1" style="stop-color:#7B4BC4"/>
		</linearGradient>
		<path class="st0" d="M400,735.3c-6.2,0-12.1-2.5-16.5-6.8L100.8,445.8c-87-87-87-228.6,0-315.7c42.2-42.2,98.2-65.4,157.9-65.4
			c52.1,0,101.5,17.8,141.3,50.4c39.8-32.6,89.2-50.4,141.3-50.4c59.6,0,115.7,23.2,157.8,65.4c87,87,87,228.7,0,315.7L416.5,728.4
			C412.1,732.8,406.2,735.3,400,735.3z M258.7,111.4c-47.1,0-91.5,18.4-124.8,51.7c-68.8,68.8-68.8,180.8,0,249.6L400,678.9
			l266.1-266.1c68.8-68.8,68.8-180.8,0-249.6c-33.3-33.3-77.7-51.7-124.8-51.7c-47.1,0-91.5,18.4-124.8,51.7c-9.1,9.1-23.9,9.1-33,0
			C350.1,129.8,305.8,111.4,258.7,111.4z"/>
	</g>
	<g>
		<linearGradient id="SVGID_2_" gradientUnits="userSpaceOnUse" x1="574.6608" y1="139.8749" x2="645.3331" y2="386.3387">
			<stop  offset="0" style="stop-color:#6248B1"/>
			<stop  offset="0.5" style="stop-color:#8055BB"/>
			<stop  offset="1" style="stop-color:#7B4BC4"/>
		</linearGradient>
		<path class="st1" d="M622.1,392.1c-6,0-11.9-2.3-16.5-6.8c-9.1-9.1-9.1-23.9,0-33c17.1-17.1,26.5-39.9,26.5-64.2
			c0-24.3-9.4-47.1-26.5-64.2c-17.2-17.2-40-26.6-64.2-26.6c-12.9,0-23.4-10.4-23.4-23.4c0-12.9,10.5-23.4,23.4-23.4
			c36.7,0,71.3,14.3,97.3,40.3c25.9,25.9,40.2,60.5,40.2,97.3c0,36.8-14.3,71.3-40.2,97.3C634,389.8,628.1,392.1,622.1,392.1z"/>
	</g>
</g>
</svg>
